<?xml version="1.0" encoding="UTF-8"?>
<svg width="100.5" height="100" version="1.1" viewBox="0 0 100.5 100" xmlns="http://www.w3.org/2000/svg">
 <g transform="scale(1.5152)">
  <circle cx="40.45" cy="40.25" r="13.05" fill="#fff" stroke-width=".99433"/>
  <g transform="matrix(.82501 0 0 .82501 -.0006935 -.0001815)">
   <g transform="translate(68.001,116)">
    <g fill="#06f">
     <path d="m3.2908-36.141c-1.0859-0.29915-1.7306-0.79572-4.0337-3.1067l-2.0267-2.0337 4.7876-4.9098c2.6332-2.7004 4.836-4.9098 4.8951-4.9098 0.059125 0 1.212 1.1204 2.5618 2.4898 1.6949 1.7194 2.5089 2.6667 2.6305 3.0613 0.3794 1.2306 0.38472 1.8527 0.02577 3.0146-0.33604 1.0877-0.44562 1.2329-2.5281 3.3487-2.3554 2.3931-3.2679 3.0043-4.7274 3.1665-0.46359 0.05152-1.1485-8.17e-4 -1.585-0.12102zm-67.571-0.16094c-1.798-0.4884-2.9773-1.6339-3.4869-3.3869-0.23536-0.80961-0.25625-4.3417-0.21772-36.807l0.04262-35.912 0.40128-0.80945c0.51068-1.0301 1.364-1.8834 2.3869-2.3869l0.80376-0.39559h40.98l0.08163 8.49c0.05034 5.2356 0.14422 8.5876 0.2449 8.7447 0.0898 0.14012 0.34493 0.3789 0.56695 0.53062 0.36382 0.24863 1.1094 0.27587 7.5512 0.27587h7.1475v6.2042c0 3.4123-0.026766 6.2042-0.05948 6.2042s-0.71232-0.32239-1.5102-0.71642c-2.6752-1.3211-5.3191-2.0835-8.0223-2.3133l-1.347-0.11452v-0.64455c0-0.49471-0.11095-0.7555-0.47725-1.1218l-0.47725-0.47725h-36.459l-0.47725 0.47725c-0.67205 0.67204-0.67205 1.6388 0 2.3109l0.47725 0.47725 15.319 0.01105c8.9485 0.0064 15.183 0.07069 14.992 0.15447-0.1796 0.07888-0.92664 0.40031-1.6601 0.71429-1.8129 0.77607-3.9851 2.155-5.3504 3.3964l-1.1328 1.03-22.335 0.16326-0.39395 0.45809c-0.42736 0.49694-0.51718 1.297-0.21907 1.9512 0.39705 0.87142 0.15594 0.84982 10.464 0.93768l9.5777 0.08163-0.56998 0.96788c-0.63238 1.0738-1.6872 3.5252-1.6872 3.9209 0 0.22666-0.8922 0.25415-8.2503 0.25415-8.7884 0-9.124 0.02787-9.5328 0.79179-0.22685 0.42387-0.22685 1.4212 0 1.8451 0.40616 0.75892 0.78081 0.79179 9.0267 0.79179h7.7442v5.2246l-7.5349 0.0039c-4.1442 0.0021-7.8251 0.0712-8.1798 0.15345-0.82273 0.19078-1.2243 0.70992-1.229 1.5887-0.0026 0.49201 0.10726 0.81374 0.3903 1.1429l0.39393 0.45809 17.042 0.16326 0.44818 1.2245c2.7012 7.3802 8.7811 12.495 16.397 13.794 0.79749 0.13601 2.2259 0.24729 3.1743 0.24729h1.7243l2.8667 2.8304c3.016 2.9779 3.7176 3.4737 5.5198 3.9009 0.47144 0.11176 0.85716 0.285 0.85716 0.38497 0 0.23086-0.81351 1.3434-1.3269 1.8147-0.21534 0.19766-0.75796 0.52828-1.2058 0.73471l-0.81431 0.37532-25.96 0.0313c-20.245 0.02441-26.124-0.01332-26.706-0.17141zm54.707-6.8078c-0.49389-0.27111-1.5758-1.1666-2.4043-1.9899l-1.5063-1.497 1.6782-0.59053c3.1614-1.1125 5.6833-2.7751 8.1654-5.3834 2.2363-2.35 3.7832-4.8803 4.7709-7.8039l0.4578-1.3551 1.5911 1.5852c0.87513 0.87185 1.7876 1.9461 2.0277 2.3873 0.45641 0.83858 0.58775 1.9042 0.3475 2.8195-0.08945 0.34078-1.8516 2.2196-5.7916 6.175-3.1146 3.1268-5.8614 5.7902-6.1039 5.9185-0.77927 0.41241-2.2121 0.29473-3.2327-0.26552zm-12.465-6.6094c-3.7753-0.71096-7.2087-2.583-9.9143-5.4058-5.0132-5.2303-6.2502-13.127-3.0963-19.765 0.89725-1.8885 1.8047-3.1729 3.4209-4.8416 7.6053-7.8529 20.356-7.0367 26.959 1.7258 5.709 7.5764 4.4978 18.17-2.7817 24.329-2.125 1.798-4.3282 2.9261-7.1756 3.6739-1.9845 0.52123-5.4469 0.65382-7.4116 0.28382zm6.173-5.1509c4.7242-1.143 8.3673-4.8178 9.497-9.5796 0.1603-0.67566 0.25839-1.794 0.25408-2.8965-0.00851-2.172-0.39303-3.8252-1.3291-5.7144-2.9151-5.8831-10.019-8.6154-16.151-6.2122-4.6707 1.8304-7.8119 6.1338-8.1343 11.144-0.55845 8.6783 7.3781 15.312 15.863 13.259zm-4.1575-53.007v-6.489l5.4872 5.4686c5.2421 5.2243 6.4314 6.5585 6.4314 7.2149 0 0.27854-0.3244 0.29457-5.9593 0.29457h-5.9593z" fill="#06f" stroke-width=".16327"/>
    </g>
   </g>
   <g transform="matrix(.17638 0 0 .17638 31.151 20.475)" fill="#4a0" font-family="none" font-size="none" font-weight="none" stroke-miterlimit="10" text-anchor="none" style="mix-blend-mode:normal">
    <g transform="scale(3.5556)" fill="#4a0">
     <path d="m57.658 12.643c1.854 1.201 2.384 3.678 1.183 5.532l-25.915 40c-0.682 1.051-1.815 1.723-3.064 1.814-0.098 8e-3 -0.197 0.011-0.294 0.011-1.146 0-2.241-0.491-3.003-1.358l-13.051-14.835c-1.459-1.659-1.298-4.186 0.36-5.646 1.662-1.46 4.188-1.296 5.646 0.361l9.563 10.87 23.043-35.567c1.203-1.854 3.68-2.383 5.532-1.182z" fill="#4a0"/>
    </g>
   </g>
  </g>
 </g>
</svg>
